<svg xmlns="http://www.w3.org/2000/svg" viewBox="0 0 164 314">
  <defs>
    <linearGradient id="bg" x1="0" y1="0" x2="1" y2="1">
      <stop offset="0" stop-color="#1b1917"/>
      <stop offset="1" stop-color="#121016"/>
    </linearGradient>
  </defs>
  <rect width="164" height="314" fill="url(#bg)"/>
  <!-- App icon: build/icon.svg geometry scaled from 96px to 72px -->
  <g transform="translate(46 92) scale(0.75)">
    <rect width="96" height="96" rx="22" fill="#47b8a9"/>
    <path fill="#000000" fill-rule="evenodd" d="M18.24 33.84C16.32 30 15.84 22.8 19.2 18C19.8 16.8 21.12 15.6 21.72 18C21.96 21.6 24.6 25.44 30 25.44C38.4 22.32 57.6 20.4 69.84 27.36C73.2 27.12 76.32 24.6 76.56 20.64C76.8 19.56 77.76 19.56 78.24 21.36C80.4 24 81.36 31.44 78.72 37.2C80.64 39.6 82.08 45.6 82.08 55.2C82.32 66.24 80.28 71.76 74.4 75.6C69 79.8 57.6 80.04 48 80.04C38.28 80.04 26.88 79.8 21.48 75.6C15.6 71.76 13.56 66.24 13.8 55.2C13.68 44.4 14.88 38.4 18.24 33.84ZM20.76 52.2C20.64 43.8 22.56 39.48 28.8 39.48C36.24 39.24 42.48 40.08 42.36 50.4C42.36 58.8 39.6 62.64 31.8 62.64C24 62.76 20.64 59.4 20.76 52.2ZM53.88 53.4C53.88 48.6 55.2 46.56 58.8 45.6L70.56 43.2C73.68 42.6 75.12 45.6 75.12 51.6C75.24 60 73.2 62.76 64.2 62.76C57.6 62.76 53.88 60 53.88 53.4ZM45.6 59.88C47.04 59.52 48.96 59.52 50.4 59.88C51.6 60.12 51.72 61.08 51.12 61.8L48.6 65.64C48.24 66.24 47.76 66.24 47.4 65.64L44.88 61.8C44.28 61.08 44.4 60.12 45.6 59.88Z"/>
    <circle cx="36" cy="48.96" r="3.12" fill="#000000"/>
    <circle cx="60.36" cy="51.84" r="3.12" fill="#000000"/>
  </g>
  <text x="82" y="205" text-anchor="middle" font-family="Segoe UI, Arial, sans-serif" font-size="24" font-weight="600" fill="#f4f1ed">Sotto</text>
  <text x="82" y="228" text-anchor="middle" font-family="Segoe UI, Arial, sans-serif" font-size="10.5" fill="#aba29a">Dictation and agent control</text>
</svg>
