<svg id="sotto-diagram-er" width="409.4375" xmlns="http://www.w3.org/2000/svg" class="erDiagram" height="301.25" viewBox="0 0 409.4375 301.25" role="graphics-document document" aria-roledescription="er"><style>#sotto-diagram-er{font-family:sans-serif;font-size:16px;fill:#333;}@keyframes edge-animation-frame{from{stroke-dashoffset:0;}}@keyframes dash{to{stroke-dashoffset:0;}}#sotto-diagram-er .edge-animation-slow{stroke-dasharray:9,5!important;stroke-dashoffset:900;animation:dash 50s linear infinite;stroke-linecap:round;}#sotto-diagram-er .edge-animation-fast{stroke-dasharray:9,5!important;stroke-dashoffset:900;animation:dash 20s linear infinite;stroke-linecap:round;}#sotto-diagram-er .error-icon{fill:hsl(220.5882352941, 100%, 98.3333333333%);}#sotto-diagram-er .error-text{fill:rgb(8.5000000002, 5.7500000001, 0);stroke:rgb(8.5000000002, 5.7500000001, 0);}#sotto-diagram-er .edge-thickness-normal{stroke-width:1px;}#sotto-diagram-er .edge-thickness-thick{stroke-width:3.5px;}#sotto-diagram-er .edge-pattern-solid{stroke-dasharray:0;}#sotto-diagram-er .edge-thickness-invisible{stroke-width:0;fill:none;}#sotto-diagram-er .edge-pattern-dashed{stroke-dasharray:3;}#sotto-diagram-er .edge-pattern-dotted{stroke-dasharray:2;}#sotto-diagram-er .marker{fill:#0b0b0b;stroke:#0b0b0b;}#sotto-diagram-er .marker.cross{stroke:#0b0b0b;}#sotto-diagram-er svg{font-family:sans-serif;font-size:16px;}#sotto-diagram-er p{margin:0;}#sotto-diagram-er .entityBox{fill:#fff4dd;stroke:hsl(40.5882352941, 60%, 83.3333333333%);}#sotto-diagram-er .relationshipLabelBox{fill:hsl(220.5882352941, 100%, 98.3333333333%);opacity:0.7;background-color:hsl(220.5882352941, 100%, 98.3333333333%);}#sotto-diagram-er .relationshipLabelBox rect{opacity:0.5;}#sotto-diagram-er .labelBkg{background-color:rgba(246.4999999998, 249.2499999999, 255, 0.5);}#sotto-diagram-er .edgeLabel{background-color:hsl(-79.4117647059, 100%, 93.3333333333%);}#sotto-diagram-er .edgeLabel .label rect{fill:hsl(-79.4117647059, 100%, 93.3333333333%);}#sotto-diagram-er .edgeLabel .label text{fill:#333;}#sotto-diagram-er .edgeLabel .label{fill:hsl(40.5882352941, 60%, 83.3333333333%);font-size:14px;}#sotto-diagram-er .label{font-family:sans-serif;color:#333;}#sotto-diagram-er .edge-pattern-dashed{stroke-dasharray:8,8;}#sotto-diagram-er .node rect,#sotto-diagram-er .node circle,#sotto-diagram-er .node ellipse,#sotto-diagram-er .node polygon{fill:#fff4dd;stroke:hsl(40.5882352941, 60%, 83.3333333333%);stroke-width:1px;}#sotto-diagram-er .relationshipLine{stroke:#0b0b0b;stroke-width:1px;fill:none;}#sotto-diagram-er .marker{fill:none!important;stroke:#0b0b0b!important;stroke-width:1;}#sotto-diagram-er [data-look=neo].labelBkg{background-color:rgba(246.4999999998, 249.2499999999, 255, 0.5);}#sotto-diagram-er .cluster rect{fill:hsl(220.5882352941, 100%, 98.3333333333%);stroke:hsl(220.5882352941, 60%, 88.3333333333%);stroke-width:1px;}#sotto-diagram-er .cluster text{fill:rgb(8.5000000002, 5.7500000001, 0);}#sotto-diagram-er .cluster-label text{fill:rgb(8.5000000002, 5.7500000001, 0);}#sotto-diagram-er .node .neo-node{stroke:hsl(40.5882352941, 60%, 83.3333333333%);}#sotto-diagram-er [data-look="neo"].node rect,#sotto-diagram-er [data-look="neo"].cluster rect,#sotto-diagram-er [data-look="neo"].node polygon{stroke:url(#sotto-diagram-er-gradient);filter:drop-shadow( 1px 2px 2px rgba(185,185,185,1));}#sotto-diagram-er [data-look="neo"].swimlane.cluster rect{filter:none;}#sotto-diagram-er [data-look="neo"].node path{stroke:url(#sotto-diagram-er-gradient);stroke-width:1px;}#sotto-diagram-er [data-look="neo"].node .outer-path{filter:drop-shadow( 1px 2px 2px rgba(185,185,185,1));}#sotto-diagram-er [data-look="neo"].node .neo-line path{stroke:hsl(40.5882352941, 60%, 83.3333333333%);filter:none;}#sotto-diagram-er [data-look="neo"].node circle{stroke:url(#sotto-diagram-er-gradient);filter:drop-shadow( 1px 2px 2px rgba(185,185,185,1));}#sotto-diagram-er [data-look="neo"].node circle .state-start{fill:#000000;}#sotto-diagram-er [data-look="neo"].icon-shape .icon{fill:url(#sotto-diagram-er-gradient);filter:drop-shadow( 1px 2px 2px rgba(185,185,185,1));}#sotto-diagram-er [data-look="neo"].icon-shape .icon-neo path{stroke:url(#sotto-diagram-er-gradient);filter:drop-shadow( 1px 2px 2px rgba(185,185,185,1));}#sotto-diagram-er :root{--mermaid-font-family:sans-serif;}</style><g><defs><marker id="sotto-diagram-er_er-onlyOneStart" class="marker onlyOne er" refX="0" refY="9" markerWidth="18" markerHeight="18" orient="auto"><path d="M9,0 L9,18 M15,0 L15,18"></path></marker></defs><defs><marker id="sotto-diagram-er_er-onlyOneEnd" class="marker onlyOne er" refX="18" refY="9" markerWidth="18" markerHeight="18" orient="auto"><path d="M3,0 L3,18 M9,0 L9,18"></path></marker></defs><defs><marker id="sotto-diagram-er_er-zeroOrOneStart" class="marker zeroOrOne er" refX="0" refY="9" markerWidth="30" markerHeight="18" orient="auto"><circle fill="white" cx="21" cy="9" r="6"></circle><path d="M9,0 L9,18"></path></marker></defs><defs><marker id="sotto-diagram-er_er-zeroOrOneEnd" class="marker zeroOrOne er" refX="30" refY="9" markerWidth="30" markerHeight="18" orient="auto"><circle fill="white" cx="9" cy="9" r="6"></circle><path d="M21,0 L21,18"></path></marker></defs><defs><marker id="sotto-diagram-er_er-oneOrMoreStart" class="marker oneOrMore er" refX="18" refY="18" markerWidth="45" markerHeight="36" orient="auto"><path d="M0,18 Q 18,0 36,18 Q 18,36 0,18 M42,9 L42,27"></path></marker></defs><defs><marker id="sotto-diagram-er_er-oneOrMoreEnd" class="marker oneOrMore er" refX="27" refY="18" markerWidth="45" markerHeight="36" orient="auto"><path d="M3,9 L3,27 M9,18 Q27,0 45,18 Q27,36 9,18"></path></marker></defs><defs><marker id="sotto-diagram-er_er-zeroOrMoreStart" class="marker zeroOrMore er" refX="18" refY="18" markerWidth="57" markerHeight="36" orient="auto"><circle fill="white" cx="48" cy="18" r="6"></circle><path d="M0,18 Q18,0 36,18 Q18,36 0,18"></path></marker></defs><defs><marker id="sotto-diagram-er_er-zeroOrMoreEnd" class="marker zeroOrMore er" refX="39" refY="18" markerWidth="57" markerHeight="36" orient="auto"><circle fill="white" cx="9" cy="18" r="6"></circle><path d="M21,18 Q39,0 57,18 Q39,36 21,18"></path></marker></defs><g class="root"><g class="clusters"></g><g class="edgePaths"><path d="M146.637,82.216L133.486,91.097C120.335,99.977,94.033,117.739,80.882,137.557C67.73,157.375,67.73,179.25,67.73,190.188L67.73,201.125" id="sotto-diagram-er-id_entity-THREAD-0_entity-MESSAGE-1_0" class="edge-thickness-normal edge-pattern-solid relationshipLine" style="undefined;;;undefined" data-edge="true" data-et="edge" data-id="id_entity-THREAD-0_entity-MESSAGE-1_0" data-points="W3sieCI6MTQ2LjYzNjcxODc1LCJ5Ijo4Mi4yMTYwNjQwMTg5Njg1OH0seyJ4Ijo2Ny43MzA0Njg3NSwieSI6MTM1LjV9LHsieCI6NjcuNzMwNDY4NzUsInkiOjIwMS4xMjV9XQ==" data-look="classic" marker-start="url(#sotto-diagram-er_er-onlyOneStart)" marker-end="url(#sotto-diagram-er_er-zeroOrMoreEnd)"></path><path d="M252.418,82.216L265.569,91.097C278.72,99.977,305.022,117.739,318.173,135.036C331.324,152.333,331.324,169.167,331.324,177.583L331.324,186" id="sotto-diagram-er-id_entity-THREAD-0_entity-VISUAL-2_1" class="edge-thickness-normal edge-pattern-solid relationshipLine" style="undefined;;;undefined" data-edge="true" data-et="edge" data-id="id_entity-THREAD-0_entity-VISUAL-2_1" data-points="W3sieCI6MjUyLjQxNzk2ODc1LCJ5Ijo4Mi4yMTYwNjQwMTg5Njg1OH0seyJ4IjozMzEuMzI0MjE4NzUsInkiOjEzNS41fSx7IngiOjMzMS4zMjQyMTg3NSwieSI6MTg2fV0=" data-look="classic" marker-start="url(#sotto-diagram-er_er-onlyOneStart)" marker-end="url(#sotto-diagram-er_er-zeroOrMoreEnd)"></path></g><g class="edgeLabels"><g class="edgeLabel" transform="translate(67.73046875, 135.5)"><g class="label" data-id="id_entity-THREAD-0_entity-MESSAGE-1_0" transform="translate(0, -9.000000476837158)"><g><rect class="background" style="" x="-21.125" y="0" width="42.25" height="21"></rect><text y="-10.1" text-anchor="middle" style=""><tspan class="text-outer-tspan row" x="0" y="-0.1em" dy="1.1em" text-anchor="middle"><tspan font-style="normal" class="text-inner-tspan" font-weight="normal">holds</tspan></tspan></text></g></g></g><g class="edgeLabel" transform="translate(331.32421875, 135.5)"><g class="label" data-id="id_entity-THREAD-0_entity-VISUAL-2_1" transform="translate(0, -9.000000476837158)"><g><rect class="background" style="" x="-23.34375" y="0" width="46.6875" height="21"></rect><text y="-10.1" text-anchor="middle" style=""><tspan class="text-outer-tspan row" x="0" y="-0.1em" dy="1.1em" text-anchor="middle"><tspan font-style="normal" class="text-inner-tspan" font-weight="normal">draws</tspan></tspan></text></g></g></g></g><g class="nodes"><g class="node default" id="sotto-diagram-er-entity-THREAD-0" data-look="classic" transform="translate(199.52734375, 46.5)"><rect class="basic label-container" style="" x="-52.890625" y="-38.5" width="105.78125" height="77"></rect><g class="label" style="" transform="translate(0, -8.5)"><rect></rect><g><rect class="background" style="stroke: none"></rect><text y="-10.1" style="" transform="translate(-32.890625, 0)"><tspan class="text-outer-tspan row" x="0" y="-0.1em" dy="1.1em"><tspan font-style="normal" class="text-inner-tspan" font-weight="normal">THREAD</tspan></tspan></text></g></g></g><g class="node default" id="sotto-diagram-er-entity-MESSAGE-1" data-look="classic" transform="translate(67.73046875, 239.625)"><rect class="basic label-container" style="" x="-59.73046875" y="-38.5" width="119.4609375" height="77"></rect><g class="label" style="" transform="translate(0, -8.5)"><rect></rect><g><rect class="background" style="stroke: none"></rect><text y="-10.1" style="" transform="translate(-39.73046875, 0)"><tspan class="text-outer-tspan row" x="0" y="-0.1em" dy="1.1em"><tspan font-style="normal" class="text-inner-tspan" font-weight="normal">MESSAGE</tspan></tspan></text></g></g></g><g class="node default" id="sotto-diagram-er-entity-VISUAL-2" data-look="classic" transform="translate(331.32421875, 239.625)"><g class="outer-path" style=""><path d="M-57.61328125 -53.625 L57.61328125 -53.625 L57.61328125 53.625 L-57.61328125 53.625" stroke="none" stroke-width="0" fill="#fff4dd"></path><path d="M-57.61328125 -53.625 C-20.81884200051283 -53.625, 15.975597248974339 -53.625, 57.61328125 -53.625 M-57.61328125 -53.625 C-25.529155814311117 -53.625, 6.554969621377765 -53.625, 57.61328125 -53.625 M57.61328125 -53.625 C57.61328125 -20.738316571663837, 57.61328125 12.148366856672325, 57.61328125 53.625 M57.61328125 -53.625 C57.61328125 -13.50302643400228, 57.61328125 26.61894713199544, 57.61328125 53.625 M57.61328125 53.625 C30.275076455995087 53.625, 2.9368716619901747 53.625, -57.61328125 53.625 M57.61328125 53.625 C33.55263224650051 53.625, 9.491983243001009 53.625, -57.61328125 53.625 M-57.61328125 53.625 C-57.61328125 26.192695712051307, -57.61328125 -1.2396085758973854, -57.61328125 -53.625 M-57.61328125 53.625 C-57.61328125 22.320376536772653, -57.61328125 -8.984246926454695, -57.61328125 -53.625" stroke="hsl(40.5882352941, 60%, 83.3333333333%)" stroke-width="1.3" fill="none" stroke-dasharray="0 0"></path></g><g style="" class="row-rect-odd"><path d="M-57.61328125 -17.875 L57.61328125 -17.875 L57.61328125 17.875 L-57.61328125 17.875" stroke="none" stroke-width="0" fill="hsl(40.5882352941, 100%, 100%)"></path><path d="M-57.61328125 -17.875 C-12.117742760735439 -17.875, 33.37779572852912 -17.875, 57.61328125 -17.875 M-57.61328125 -17.875 C-22.373536975149115 -17.875, 12.86620729970177 -17.875, 57.61328125 -17.875 M57.61328125 -17.875 C57.61328125 -6.556277569941884, 57.61328125 4.762444860116233, 57.61328125 17.875 M57.61328125 -17.875 C57.61328125 -3.885150784075716, 57.61328125 10.104698431848568, 57.61328125 17.875 M57.61328125 17.875 C12.062116342728217 17.875, -33.489048564543566 17.875, -57.61328125 17.875 M57.61328125 17.875 C14.62792861300165 17.875, -28.3574240239967 17.875, -57.61328125 17.875 M-57.61328125 17.875 C-57.61328125 5.822609185836999, -57.61328125 -6.229781628326002, -57.61328125 -17.875 M-57.61328125 17.875 C-57.61328125 8.072841771143429, -57.61328125 -1.7293164577131428, -57.61328125 -17.875" stroke="hsl(40.5882352941, 60%, 83.3333333333%)" stroke-width="1.3" fill="none" stroke-dasharray="0 0"></path></g><g style="" class="row-rect-even"><path d="M-57.61328125 17.875 L57.61328125 17.875 L57.61328125 53.625 L-57.61328125 53.625" stroke="none" stroke-width="0" fill="hsl(40.5882352941, 100%, 98.3333333333%)"></path><path d="M-57.61328125 17.875 C-25.40782290863553 17.875, 6.7976354327289386 17.875, 57.61328125 17.875 M-57.61328125 17.875 C-29.147498966359525 17.875, -0.6817166827190491 17.875, 57.61328125 17.875 M57.61328125 17.875 C57.61328125 29.419572358375106, 57.61328125 40.96414471675021, 57.61328125 53.625 M57.61328125 17.875 C57.61328125 29.889243553899405, 57.61328125 41.90348710779881, 57.61328125 53.625 M57.61328125 53.625 C26.825683230345312 53.625, -3.9619147893093754 53.625, -57.61328125 53.625 M57.61328125 53.625 C15.104498835104557 53.625, -27.404283579790885 53.625, -57.61328125 53.625 M-57.61328125 53.625 C-57.61328125 42.50075811408253, -57.61328125 31.376516228165052, -57.61328125 17.875 M-57.61328125 53.625 C-57.61328125 43.59493133317521, -57.61328125 33.564862666350415, -57.61328125 17.875" stroke="hsl(40.5882352941, 60%, 83.3333333333%)" stroke-width="1.3" fill="none" stroke-dasharray="0 0"></path></g><g class="label name" transform="translate(-29.0078125, -44.25)" style=""><g><rect class="background" style="stroke: none"></rect></g><text y="-10.1" style=""><tspan class="text-outer-tspan row" x="0" y="-0.1em" dy="1.1em"><tspan font-style="normal" class="text-inner-tspan" font-weight="normal">VISUAL</tspan></tspan></text></g><g class="label attribute-type" transform="translate(-45.11328125, -8.5)" style=""><g><rect class="background" style="stroke: none"></rect></g><text y="-10.1" style=""><tspan class="text-outer-tspan row" x="0" y="-0.1em" dy="1.1em"><tspan font-style="normal" class="text-inner-tspan" font-weight="normal">string</tspan></tspan></text></g><g class="label attribute-name" transform="translate(19.11328125, -8.5)" style=""><g><rect class="background" style="stroke: none"></rect></g><text y="-10.1" style=""><tspan class="text-outer-tspan row" x="0" y="-0.1em" dy="1.1em"><tspan font-style="normal" class="text-inner-tspan" font-weight="normal">id</tspan></tspan></text></g><g class="label attribute-keys" transform="translate(70.11328125, -8.5)" style=""><g><rect class="background" style="stroke: none"></rect></g><text y="-10.1" style=""><tspan class="text-outer-tspan row" x="0" y="-0.1em" dy="1.1em"></tspan></text></g><g class="label attribute-comment" transform="translate(70.11328125, -8.5)" style=""><g><rect class="background" style="stroke: none"></rect></g><text y="-10.1" style=""><tspan class="text-outer-tspan row" x="0" y="-0.1em" dy="1.1em"></tspan></text></g><g class="label attribute-type" transform="translate(-45.11328125, 27.25)" style=""><g><rect class="background" style="stroke: none"></rect></g><text y="-10.1" style=""><tspan class="text-outer-tspan row" x="0" y="-0.1em" dy="1.1em"><tspan font-style="normal" class="text-inner-tspan" font-weight="normal">string</tspan></tspan></text></g><g class="label attribute-name" transform="translate(19.11328125, 27.25)" style=""><g><rect class="background" style="stroke: none"></rect></g><text y="-10.1" style=""><tspan class="text-outer-tspan row" x="0" y="-0.1em" dy="1.1em"><tspan font-style="normal" class="text-inner-tspan" font-weight="normal">title</tspan></tspan></text></g><g class="label attribute-keys" transform="translate(70.11328125, 27.25)" style=""><g><rect class="background" style="stroke: none"></rect></g><text y="-10.1" style=""><tspan class="text-outer-tspan row" x="0" y="-0.1em" dy="1.1em"></tspan></text></g><g class="label attribute-comment" transform="translate(70.11328125, 27.25)" style=""><g><rect class="background" style="stroke: none"></rect></g><text y="-10.1" style=""><tspan class="text-outer-tspan row" x="0" y="-0.1em" dy="1.1em"></tspan></text></g><g class="divider"><path d="M-57.61328125 -17.87505 L-57.61328125 -17.87495 L57.61328125 -17.87495 L57.61328125 -17.87505" stroke="none" stroke-width="0" fill="#fff4dd" fill-rule="evenodd"></path><path d="M-57.61328125 -17.87505 C-57.61328125 -17.875026925340862, -57.61328125 -17.875003850681725, -57.61328125 -17.87495 M-57.61328125 -17.87505 C-57.61328125 -17.875023896019606, -57.61328125 -17.87499779203921, -57.61328125 -17.87495 M-57.61328125 -17.87495 C-22.30651736378813 -17.87495, 13.000246522423737 -17.87495, 57.61328125 -17.87495 M-57.61328125 -17.87495 C-30.433735554473984 -17.87495, -3.254189858947967 -17.87495, 57.61328125 -17.87495 M57.61328125 -17.87495 C57.61328125 -17.874981429296586, 57.61328125 -17.875012858593177, 57.61328125 -17.87505 M57.61328125 -17.87495 C57.61328125 -17.874978632557536, 57.61328125 -17.87500726511507, 57.61328125 -17.87505 M57.61328125 -17.87505 C21.3917286329716 -17.87505, -14.829823984056802 -17.87505, -57.61328125 -17.87505 M57.61328125 -17.87505 C31.15858160732407 -17.87505, 4.70388196464814 -17.87505, -57.61328125 -17.87505" stroke="hsl(40.5882352941, 60%, 83.3333333333%)" stroke-width="1.3" fill="none" stroke-dasharray="0 0"></path></g><g class="divider"><path d="M6.61323125 -17.875 L6.61333125 -17.875 L6.61333125 53.625 L6.61323125 53.625" stroke="none" stroke-width="0" fill="#fff4dd" fill-rule="evenodd"></path><path d="M6.61323125 -17.875 C6.613268518002874 -17.875, 6.613305786005748 -17.875, 6.61333125 -17.875 M6.61323125 -17.875 C6.613255643665646 -17.875, 6.613280037331292 -17.875, 6.61333125 -17.875 M6.61333125 -17.875 C6.61333125 0.6828679805812783, 6.61333125 19.240735961162557, 6.61333125 53.625 M6.61333125 -17.875 C6.61333125 2.1275996605607155, 6.61333125 22.13019932112143, 6.61333125 53.625 M6.61333125 53.625 C6.61330072422635 53.625, 6.6132701984527 53.625, 6.61323125 53.625 M6.61333125 53.625 C6.613298778915272 53.625, 6.6132663078305445 53.625, 6.61323125 53.625 M6.61323125 53.625 C6.61323125 30.23074025448077, 6.61323125 6.836480508961543, 6.61323125 -17.875 M6.61323125 53.625 C6.61323125 36.883201591756745, 6.61323125 20.14140318351349, 6.61323125 -17.875" stroke="hsl(40.5882352941, 60%, 83.3333333333%)" stroke-width="1.3" fill="none" stroke-dasharray="0 0"></path></g><g class="divider"><path d="M-57.61328125 -17.87505 L-57.61328125 -17.87495 L57.61328125 -17.87495 L57.61328125 -17.87505" stroke="none" stroke-width="0" fill="#fff4dd" fill-rule="evenodd"></path><path d="M-57.61328125 -17.87505 C-57.61328125 -17.875023771971918, -57.61328125 -17.874997543943838, -57.61328125 -17.87495 M-57.61328125 -17.87505 C-57.61328125 -17.87501273653893, -57.61328125 -17.87497547307786, -57.61328125 -17.87495 M-57.61328125 -17.87495 C-18.724232962249808 -17.87495, 20.164815325500385 -17.87495, 57.61328125 -17.87495 M-57.61328125 -17.87495 C-27.696568381721157 -17.87495, 2.220144486557686 -17.87495, 57.61328125 -17.87495 M57.61328125 -17.87495 C57.61328125 -17.874982515959363, 57.61328125 -17.87501503191873, 57.61328125 -17.87505 M57.61328125 -17.87495 C57.61328125 -17.874975834206417, 57.61328125 -17.87500166841284, 57.61328125 -17.87505 M57.61328125 -17.87505 C17.670127666437608 -17.87505, -22.273025917124784 -17.87505, -57.61328125 -17.87505 M57.61328125 -17.87505 C13.70269152898296 -17.87505, -30.20789819203408 -17.87505, -57.61328125 -17.87505" stroke="hsl(40.5882352941, 60%, 83.3333333333%)" stroke-width="1.3" fill="none" stroke-dasharray="0 0"></path></g></g></g></g></g><defs><filter id="sotto-diagram-er-drop-shadow" height="130%" width="130%"><feDropShadow dx="4" dy="4" stdDeviation="0" flood-opacity="0.06" flood-color="#000000"></feDropShadow></filter></defs><defs><filter id="sotto-diagram-er-drop-shadow-small" height="150%" width="150%"><feDropShadow dx="2" dy="2" stdDeviation="0" flood-opacity="0.06" flood-color="#000000"></feDropShadow></filter></defs><linearGradient id="sotto-diagram-er-gradient" gradientUnits="objectBoundingBox" x1="0%" y1="0%" x2="100%" y2="0%"><stop offset="0%" stop-color="hsl(40.5882352941, 60%, 83.3333333333%)" stop-opacity="1"></stop><stop offset="100%" stop-color="hsl(-79.4117647059, 60%, 83.3333333333%)" stop-opacity="1"></stop></linearGradient></svg>